<svg width="24" height="24" viewBox="0 0 24 24" fill="none" xmlns="http://www.w3.org/2000/svg">
<path d="M9.00246 2.5C3.94086 3.8125 4.22205 10.4688 11.3458 11.6875C7.78392 8.875 7.31526 4.9375 9.00246 2.5Z" fill="#1AD1B1"/>
<path d="M7.10071 14.4874C5.3246 15.3758 0.931039 14.5809 2.23975 9.25C2.61368 9.43705 2.72427 9.68941 2.89412 9.90467C5.792 14.3003 8.5416 11.3506 10.5595 13.8526C12.5773 16.3546 8.87682 17.9478 8.59639 15.6096C10.4473 15.7186 10.466 14.3938 9.90512 13.9746C9.34424 13.5554 8.22248 13.9262 7.10071 14.4874Z" fill="#1AD1B1"/>
<path fill-rule="evenodd" clip-rule="evenodd" d="M12.0002 13.75C11.5823 12.7462 10.5855 12.2663 9.4422 11.7159C7.48897 10.7756 5.10782 9.62935 4.45325 5.3125C2.18918 8.21875 3.50991 12.25 7.84943 12.3438C12.3776 12.4416 13.1323 17.9688 8.32107 16.9375C9.98733 18.4532 10.7964 19.5898 12.0002 22C13.1835 19.5898 13.9788 18.4532 15.6165 16.9375C10.8875 17.9688 11.6293 12.4416 16.0801 12.3438C20.3455 12.25 21.6437 8.21875 19.4183 5.3125C18.7749 9.62935 16.4344 10.7756 14.5146 11.7159L14.5145 11.716C13.3907 12.2664 12.411 12.7462 12.0002 13.75ZM10.8682 17.9688C11.2794 17.7123 11.5174 17.5334 12.0002 16.9375C12.4748 17.5334 12.7088 17.7123 13.113 17.9688C12.6511 17.8376 12.4042 17.6738 12.1166 17.483C12.0787 17.4579 12.0401 17.4323 12.0002 17.4062C11.9598 17.4322 11.9207 17.4577 11.8823 17.4827L11.8822 17.4828L11.8819 17.483C11.5892 17.6738 11.338 17.8376 10.8682 17.9688ZM11.3399 18.8125L11.3709 18.7816C11.5475 18.6055 11.7134 18.44 12.0002 18.3438C12.2821 18.44 12.4453 18.6055 12.6188 18.7816L12.6493 18.8125C12.2722 19.1499 12.1211 19.3531 12.0002 19.75C11.8773 19.3531 11.7235 19.1499 11.3399 18.8125Z" fill="#1AD1B1"/>
<path d="M15.1089 2.5C20.0072 3.8125 19.7351 10.4688 12.8411 11.6875C16.2881 8.875 16.7416 4.9375 15.1089 2.5Z" fill="#1AD1B1"/>
<path d="M16.8993 14.4874C18.6754 15.3758 23.069 14.5809 21.7603 9.25C21.3863 9.43705 21.2757 9.68941 21.1059 9.90467C18.208 14.3003 15.4584 11.3506 13.4405 13.8526C11.4227 16.3546 15.1232 17.9478 15.4036 15.6096C13.5527 15.7186 13.534 14.3938 14.0949 13.9746C14.6558 13.5554 15.7775 13.9262 16.8993 14.4874Z" fill="#1AD1B1"/>
</svg>
