<svg width="24" height="24" viewBox="0 0 24 24" fill="none" xmlns="http://www.w3.org/2000/svg">
<path fill-rule="evenodd" clip-rule="evenodd" d="M11.9755 1L11.9429 1.06472C10.8923 3.15211 10.2286 4.47054 8.93188 6.38397C9.37948 6.38397 9.64803 6.38397 10.0956 6.19831C11.1444 8.05337 11.4846 9.05278 11.9755 11.0253C12.4664 9.05278 12.8067 8.05337 13.8554 6.19831C14.303 6.38397 14.5716 6.38397 15.0191 6.38397C13.7224 4.47054 13.0588 3.15211 12.0081 1.06472L11.9755 1ZM11.9755 4.52744L11.1454 5.64136C11.5865 6.56363 11.741 7.21187 11.9755 8.42617C12.2101 7.21187 12.3646 6.56363 12.8056 5.64136L11.9755 4.52744ZM21.4781 6.53052L21.4062 6.53448C19.0847 6.66238 17.6184 6.74316 15.3236 6.56961C15.5474 6.95974 15.6817 7.19382 16.0652 7.49113C14.9934 9.33276 14.3035 10.129 12.8517 11.5432C14.7944 10.9848 15.8245 10.7816 17.9451 10.7682C18.0092 11.2512 18.1434 11.4853 18.3672 11.8754C19.3653 9.78842 20.168 8.55077 21.4387 6.59127L21.4781 6.53052ZM18.4429 8.29424L17.0694 8.12769C16.4963 8.97322 16.0158 9.43203 15.0882 10.2436C16.2503 9.84089 16.8854 9.65147 17.8995 9.57472L18.4429 8.29424ZM2.56122 6.59129L2.52182 6.53053L2.5938 6.5345C4.91527 6.6624 6.38156 6.74318 8.67636 6.56963C8.45257 6.95976 8.31829 7.19384 7.93474 7.49114C9.00659 9.33278 9.69644 10.129 11.1483 11.5432C9.20552 10.9848 8.17544 10.7817 6.05485 10.7682C5.99081 11.2512 5.85653 11.4853 5.63273 11.8754C4.63466 9.78843 3.83201 8.55078 2.56122 6.59129ZM6.10052 9.57471L5.55707 8.29423L6.9306 8.12768C7.50368 8.9732 7.98421 9.43201 8.9118 10.2436C7.74966 9.84088 7.11461 9.65145 6.10052 9.57471ZM10.3385 9.14612L10.1145 10.2409L11.8401 11.9213L9.53138 11.2574L8.70129 12L9.53137 12.7426L11.84 12.0787L10.1144 13.759L10.3384 14.8539L11.3924 14.5016L11.9755 12.1575L12.5586 14.5016L13.6126 14.8539L13.8366 13.759L12.111 12.0787L14.4196 12.7426L15.2497 12L14.4196 11.2574L12.1111 11.9212L13.8366 10.2409L13.6126 9.14612L12.5586 9.49833L11.9755 11.8424L11.3925 9.49832L10.3385 9.14612ZM21.4388 17.4234L21.4782 17.4841L21.4062 17.4801H21.4062C19.0847 17.3522 17.6185 17.2715 15.3237 17.445C15.5475 17.0549 15.6817 16.8208 16.0653 16.5235C14.9934 14.6819 14.3036 13.8856 12.8517 12.4714C14.7945 13.0298 15.8246 13.233 17.9452 13.2464C18.0092 12.7634 18.1435 12.5294 18.3673 12.1392C19.3653 14.2262 20.168 15.4638 21.4387 17.4232L21.4387 17.4233L21.4388 17.4233L21.4388 17.4233L21.4388 17.4234ZM17.8995 14.4399L18.4429 15.7204L17.0694 15.887C16.4963 15.0414 16.0158 14.5826 15.0882 13.771C16.2504 14.1738 16.8854 14.3632 17.8995 14.4399ZM2.52182 17.4841L2.5938 17.4801H2.5938H2.59384H2.59386H2.59388C4.91531 17.3522 6.38158 17.2715 8.67636 17.445C8.45257 17.0549 8.31829 16.8208 7.93474 16.5235C9.00659 14.6819 9.69644 13.8856 11.1483 12.4714C9.20552 13.0298 8.17544 13.233 6.05485 13.2464C5.99081 12.7634 5.85653 12.5294 5.63273 12.1392C4.63466 14.2262 3.83201 15.4639 2.56123 17.4233L2.56122 17.4234L2.52182 17.4841ZM5.55706 15.7204L6.9306 15.8869C7.50368 15.0414 7.9842 14.5826 8.9118 13.771C7.74965 14.1737 7.1146 14.3632 6.10052 14.4399L5.55706 15.7204ZM12.0762 22.9606L12.0436 23.0253L12.0111 22.9606C10.9604 20.8732 10.2967 19.5548 9 17.6413C9.44759 17.6413 9.71615 17.6413 10.1637 17.827C11.2125 15.9719 11.5527 14.9725 12.0436 13C12.5346 14.9725 12.8748 15.9719 13.9235 17.827C14.3711 17.6413 14.6397 17.6413 15.0873 17.6413C13.7905 19.5548 13.1269 20.8732 12.0762 22.9606ZM12.8056 18.3586L11.9755 19.4726L11.1455 18.3586C11.5865 17.4364 11.741 16.7881 11.9755 15.5738C12.2101 16.7881 12.3646 17.4364 12.8056 18.3586Z" fill="#5BD6DF"/>
</svg>
