<svg width="24" height="24" viewBox="0 0 24 24" fill="none" xmlns="http://www.w3.org/2000/svg">
<path fill-rule="evenodd" clip-rule="evenodd" d="M4.40742 8.09524C7.18519 5.04762 10.6111 5.14286 12.463 7.04762C8.48149 8 11.5508 12.3565 14.6852 11.0476C18.0325 9.64989 17.816 4.32746 11.4652 2.06342C11.8229 2.02153 12.1868 2 12.5556 2C17.7633 2 21.9865 6.29285 22 11.5936C21.3437 9.70785 20.4315 8.33938 19.2223 7.33333C20.1895 11.3727 18.9445 14.0952 15.9815 14.6667C17.463 10.8571 11.64 11.0476 11.5075 14.9627C11.3872 18.5194 15.8821 20.4397 20.742 16.4576C19.2355 19.7321 15.9704 22 12.1852 22C10.3717 22 8.67755 21.4794 7.239 20.5769C9.22743 20.9627 11.0913 20.9497 12.463 20.2857C8.48149 19.5238 6.90742 16.381 7.55557 13.9048C10.3334 17.0476 12.9259 12.0952 9.77779 9.90476C6.7775 8.12796 2.52737 10.8471 3.60184 17.1708C2.5903 15.6389 2 13.7944 2 11.8095C2 8.34408 3.79931 5.30665 6.49835 3.61347C5.30199 5.08027 4.61148 6.57774 4.40742 8.09524Z" fill="#985AEA"/>
</svg>
