<svg width="24" height="24" viewBox="0 0 24 24" fill="none" xmlns="http://www.w3.org/2000/svg">
<path d="M12.0293 1.5C9.82337 4.23998 9.43973 5.70783 12.0293 7.17568C14.6189 5.70783 14.2352 4.23998 12.0293 1.5Z" fill="#2CC76E"/>
<path d="M0.558563 13.2297C1.93152 14.3882 2.66703 14.5897 3.40254 13.2297C2.66703 11.8697 1.93152 12.0712 0.558563 13.2297Z" fill="#2CC76E"/>
<path d="M1.25532 5.61884C1.99834 8.105 2.73107 8.95309 4.71061 7.99894C4.90294 5.81369 3.84846 5.4307 1.25532 5.61884Z" fill="#2CC76E"/>
<path fill-rule="evenodd" clip-rule="evenodd" d="M1.25531 5.61886C1.99832 8.10502 2.73105 8.95311 4.7106 7.99896C4.90293 5.81371 3.84844 5.43071 1.25531 5.61886ZM0.558563 13.2297C1.93152 14.3882 2.66703 14.5897 3.40254 13.2297C2.66703 11.8697 1.93152 12.0712 0.558563 13.2297ZM22.8032 5.61886C22.0602 8.10502 21.3275 8.95311 19.3479 7.99896C19.1556 5.81371 20.2101 5.43071 22.8032 5.61886ZM23.5 13.2297C22.127 14.3882 21.3915 14.5897 20.656 13.2297C21.3915 11.8697 22.127 12.0712 23.5 13.2297Z" fill="#2CC76E"/>
<path fill-rule="evenodd" clip-rule="evenodd" d="M11.8391 7.93595C12.0293 8.15346 11.2377 9.07082 11.0784 8.88167C8.13055 5.38252 2.99564 9.35453 4.89746 13.5157C5.96776 15.8575 7.91146 16.6717 9.5082 17.3406C10.7487 17.8602 11.7798 18.2922 12.0293 19.2846C12.2787 18.2922 13.3098 17.8602 14.5504 17.3406C16.1471 16.6717 18.0908 15.8575 19.1611 13.5157C21.0629 9.35453 15.928 5.38252 12.9802 8.88167C12.8208 9.07082 12.0293 8.15346 12.2195 7.93595C16.0231 3.58566 22.3942 8.31424 20.7776 13.6103C19.9469 16.3317 18.0365 17.3551 16.1818 18.3485C14.4273 19.2883 12.7227 20.2013 12.0293 22.5C11.3359 20.2013 9.63128 19.2883 7.87676 18.3485C6.02208 17.3551 4.11163 16.3317 3.28092 13.6103C1.66437 8.31424 8.03546 3.58566 11.8391 7.93595Z" fill="#2CC76E"/>
<path d="M6.91013 13.1351C3.87655 10.0135 8.90091 7.17567 10.4177 10.0135C9.18531 9.72973 7.95292 10.7703 8.23732 12.1892C8.52171 13.6081 10.4177 14.3649 10.7021 15.8784C8.80611 14.4595 7.66852 13.7973 5.67773 13.9865C5.80982 13.4984 6.38044 13.2181 6.91013 13.1351Z" fill="#2CC76E"/>
<path d="M17.1484 13.1349C20.182 10.0129 15.1577 7.17476 13.6409 10.0129C14.8733 9.72909 16.1056 10.7697 15.8212 12.1888C15.5368 13.6079 13.6409 14.3647 13.3565 15.8784C15.2525 14.4593 16.39 13.7971 18.3808 13.9863C18.2487 13.4982 17.6781 13.2178 17.1484 13.1349Z" fill="#2CC76E"/>
</svg>
