<svg width="24" height="24" viewBox="0 0 24 24" fill="none" xmlns="http://www.w3.org/2000/svg">
<path d="M21 12C20.8583 12.3902 19.6152 14.0917 18.8936 14.4541C16.8746 9.56968 15.2242 7.47028 12 4.07144C9.49103 6.5816 8.3617 8.13011 8.17021 9.54592C9.60387 8.25897 10.453 7.61586 12 6.52552C13.6663 8.13576 14.4921 9.1811 15.8298 11.2449C15.0937 12.2354 13.3725 13.464 12.383 14.0765C12.0788 13.8383 11.9113 13.625 11.617 13.1327C12.4934 12.401 12.9542 11.9535 13.7234 11.0561C13.3742 10.0776 12.9734 9.59105 12 8.79082C10.1728 9.65207 9.06044 10.7465 7.40426 12.3776C6.39712 10.8336 6.05239 9.9673 5.87234 8.41327C7.97848 5.9345 9.35741 4.73143 12 2.75001C14.7225 4.73092 19.4153 8.88679 21 12Z" fill="#E3C348"/>
<path d="M3 12C3.14169 11.6098 4.38481 9.90828 5.10638 9.54591C7.12538 14.4303 8.77583 16.5297 12 19.9286C14.509 17.4184 15.6383 15.8699 15.8298 14.4541C14.3961 15.741 13.547 16.3841 12 17.4745C10.3337 15.8642 9.50791 14.8189 8.17021 12.7551C8.90632 11.7647 10.6275 10.536 11.617 9.92347C11.9212 10.1617 12.0887 10.375 12.383 10.8673C11.5066 11.599 11.0458 12.0465 10.2766 12.9439C10.6258 13.9224 11.0266 14.409 12 15.2092C13.8272 14.3479 14.9396 13.2535 16.5957 11.6224C17.6029 13.1664 17.9476 14.0327 18.1277 15.5867C16.0215 18.0655 14.6426 19.2686 12 21.25C9.27754 19.2691 4.58473 15.1132 3 12Z" fill="#E3C348"/>
</svg>
