<svg width="24" height="24" viewBox="0 0 24 24" fill="none" xmlns="http://www.w3.org/2000/svg">
<path d="M11.901 20.3661C13.3862 20.3661 14.4753 19.4478 14.9704 18.4275C12.6931 20.3661 9.77907 19.6519 9.82183 17.3051C9.82183 15.6726 12.0991 14.8563 12.6931 16.6929C12.8407 17.0478 13.1882 17.6112 14.0793 17.6112C15.1684 17.6112 15.4509 16.5885 15.3664 15.9787C15.1684 14.5502 13.8813 13.0197 11.802 13.0197C9.82183 13.0197 8.33667 14.6522 8.33667 16.6929C8.33667 18.7336 9.92084 20.3661 11.901 20.3661Z" fill="#2993F4"/>
<path fill-rule="evenodd" clip-rule="evenodd" d="M11.901 21.9987C17.7427 22.0881 22 17.6112 22 11.9993C22 6.47686 17.4785 2 11.901 2C8.18776 2 4.97031 4.14272 3.48513 6.69357C2.94766 7.50984 3.08915 8.41121 3.58415 8.83628C4.17825 9.34646 5.08908 9.34646 5.76235 8.53018C7.44552 6.4895 9.39342 5.46916 12 5.46916C16.3198 5.46916 19.8218 8.98669 19.8218 13.3258C19.8218 16.9979 17.6436 19.2438 16.1585 19.856C17.2476 19.1417 19.0298 17.4986 19.0298 14.3461C19.0298 10.5705 15.9268 7.50984 12.0991 7.50984C10.5588 7.50984 9.76309 7.79635 9.42581 7.91798C8.83172 8.13221 8.35553 8.83628 8.48334 9.65256C8.56293 10.1609 9.07118 11.0998 10.5149 10.7749C10.8967 10.689 11.5914 10.5709 12.0001 10.5709C14.8982 10.5709 17.1486 12.855 17.1486 15.6726C17.1486 18.4902 14.7992 20.6722 11.901 20.6722C10.3169 20.6722 8.03964 20.4682 5.66339 18.8356C6.85151 20.6722 8.83172 21.7946 11.901 21.9987Z" fill="#2993F4"/>
<ellipse cx="3.48516" cy="12.1014" rx="1.48516" ry="1.53051" fill="#2993F4"/>
<ellipse cx="5.36635" cy="16.4888" rx="1.18812" ry="1.22441" fill="#2993F4"/>
</svg>
