<svg width="24" height="24" viewBox="0 0 24 24" fill="none" xmlns="http://www.w3.org/2000/svg">
<path d="M12.1018 20.8768C14.8629 18.3406 23.6577 16.6159 18.1354 12.0507C20.4875 15.3986 16.7036 19.1522 12.5108 19.1522C8.01106 19.3551 6.78388 14.0797 11.1813 14.8913C8.21567 17.4275 12.204 19.8623 15.4765 17.4275C17.3172 15.9058 17.1127 12.9671 13.2266 11.442C3.92043 7.78986 12.4084 4.74638 11.6926 1.5C17.5218 6.57246 9.54505 6.57246 12.1018 9.92029C11.8076 8.05625 12.3003 7.21277 14.3516 6.06522C13.7207 8.80622 14.0415 10.0469 15.7833 11.7464C14.3267 9.6749 14.4538 8.19565 15.9878 6.97826C16.3969 10.7319 20.8994 11.3406 20.9988 14.8913C21.0954 18.3406 15.2719 19.4565 12.1018 22.5C7.70425 18.5435 2.99207 17.9328 3.00002 15.1957C3.00615 13.0885 4.94307 11.5435 7.9088 7.28261C8.2156 9.71739 10.2609 10.529 11.9994 11.3406C7.70427 11.6449 6.57935 15.1957 8.21567 17.6304C6.57937 17.1232 3.92046 15.5 6.06805 11.7464C0.954754 17.0217 9.34056 17.9348 12.1018 20.8768Z" fill="#F04D43"/>
<path d="M13.0221 17.1232C14.0447 15.0942 12.3062 13.1667 9.44275 14.1812C9.64728 12.2536 12.648 11.9041 14.0447 12.7609C15.6361 13.737 16.2946 16.2101 13.0221 17.1232Z" fill="#F04D43"/>
</svg>
