<svg width="216" height="24" viewBox="0 0 216 24" fill="none" xmlns="http://www.w3.org/2000/svg">
<path d="M12.1018 20.8768C14.8629 18.3406 23.6577 16.6159 18.1354 12.0507C20.4875 15.3986 16.7036 19.1522 12.5108 19.1522C8.01106 19.3551 6.78388 14.0797 11.1813 14.8913C8.21567 17.4275 12.204 19.8623 15.4765 17.4275C17.3172 15.9058 17.1127 12.9671 13.2266 11.442C3.92043 7.78986 12.4084 4.74638 11.6926 1.5C17.5218 6.57246 9.54505 6.57246 12.1018 9.92029C11.8076 8.05625 12.3003 7.21277 14.3516 6.06522C13.7207 8.80622 14.0415 10.0469 15.7833 11.7464C14.3267 9.6749 14.4538 8.19565 15.9878 6.97826C16.3969 10.7319 20.8994 11.3406 20.9988 14.8913C21.0954 18.3406 15.2719 19.4565 12.1018 22.5C7.70425 18.5435 2.99207 17.9328 3.00002 15.1957C3.00615 13.0885 4.94307 11.5435 7.9088 7.28261C8.2156 9.71739 10.2609 10.529 11.9994 11.3406C7.70427 11.6449 6.57935 15.1957 8.21567 17.6304C6.57937 17.1232 3.92046 15.5 6.06805 11.7464C0.954754 17.0217 9.34056 17.9348 12.1018 20.8768Z" fill="#F04D43"/>
<path d="M13.0221 17.1232C14.0447 15.0942 12.3062 13.1667 9.44275 14.1812C9.64728 12.2536 12.648 11.9041 14.0447 12.7609C15.6361 13.737 16.2946 16.2101 13.0221 17.1232Z" fill="#F04D43"/>
<path d="M43.901 20.3661C45.3862 20.3661 46.4753 19.4478 46.9704 18.4275C44.6931 20.3661 41.7791 19.6519 41.8218 17.3051C41.8218 15.6726 44.0991 14.8563 44.6931 16.6929C44.8407 17.0478 45.1882 17.6112 46.0793 17.6112C47.1684 17.6112 47.4509 16.5885 47.3664 15.9787C47.1684 14.5502 45.8813 13.0197 43.802 13.0197C41.8218 13.0197 40.3367 14.6522 40.3367 16.6929C40.3367 18.7336 41.9208 20.3661 43.901 20.3661Z" fill="#2993F4"/>
<path fill-rule="evenodd" clip-rule="evenodd" d="M43.901 21.9987C49.7427 22.0881 54 17.6112 54 11.9993C54 6.47686 49.4785 2 43.901 2C40.1878 2 36.9703 4.14272 35.4851 6.69357C34.9477 7.50984 35.0892 8.41121 35.5842 8.83628C36.1783 9.34646 37.0891 9.34646 37.7623 8.53018C39.4455 6.4895 41.3934 5.46916 44 5.46916C48.3198 5.46916 51.8218 8.98669 51.8218 13.3258C51.8218 16.9979 49.6436 19.2438 48.1585 19.856C49.2476 19.1417 51.0298 17.4986 51.0298 14.3461C51.0298 10.5705 47.9268 7.50984 44.0991 7.50984C42.5588 7.50984 41.7631 7.79635 41.4258 7.91798C40.8317 8.13221 40.3555 8.83628 40.4833 9.65256C40.5629 10.1609 41.0712 11.0998 42.5149 10.7749C42.8967 10.689 43.5914 10.5709 44.0001 10.5709C46.8982 10.5709 49.1486 12.855 49.1486 15.6726C49.1486 18.4902 46.7992 20.6722 43.901 20.6722C42.3169 20.6722 40.0396 20.4682 37.6634 18.8356C38.8515 20.6722 40.8317 21.7946 43.901 21.9987Z" fill="#2993F4"/>
<ellipse cx="35.4852" cy="12.1014" rx="1.48516" ry="1.53051" fill="#2993F4"/>
<ellipse cx="37.3663" cy="16.4888" rx="1.18812" ry="1.22441" fill="#2993F4"/>
<path d="M73.0025 2.5C67.9409 3.8125 68.222 10.4688 75.3458 11.6875C71.7839 8.875 71.3153 4.9375 73.0025 2.5Z" fill="#1AD1B1"/>
<path d="M71.1007 14.4874C69.3246 15.3758 64.931 14.5809 66.2397 9.25C66.6137 9.43705 66.7243 9.68941 66.8941 9.90467C69.792 14.3003 72.5416 11.3506 74.5595 13.8526C76.5773 16.3546 72.8768 17.9478 72.5964 15.6096C74.4473 15.7186 74.466 14.3938 73.9051 13.9746C73.3442 13.5554 72.2225 13.9262 71.1007 14.4874Z" fill="#1AD1B1"/>
<path fill-rule="evenodd" clip-rule="evenodd" d="M76.0002 13.75C75.5823 12.7462 74.5855 12.2663 73.4422 11.7159C71.489 10.7756 69.1078 9.62935 68.4532 5.3125C66.1892 8.21875 67.5099 12.25 71.8494 12.3438C76.3776 12.4416 77.1323 17.9688 72.3211 16.9375C73.9873 18.4532 74.7964 19.5898 76.0002 22C77.1835 19.5898 77.9788 18.4532 79.6165 16.9375C74.8875 17.9688 75.6293 12.4416 80.0801 12.3438C84.3455 12.25 85.6437 8.21875 83.4183 5.3125C82.7749 9.62935 80.4344 10.7756 78.5146 11.7159L78.5145 11.716C77.3907 12.2664 76.411 12.7462 76.0002 13.75ZM74.8682 17.9688C75.2794 17.7123 75.5174 17.5334 76.0002 16.9375C76.4748 17.5334 76.7088 17.7123 77.113 17.9688C76.6511 17.8376 76.4042 17.6738 76.1166 17.483C76.0787 17.4579 76.0401 17.4323 76.0002 17.4062C75.9598 17.4322 75.9207 17.4577 75.8823 17.4827L75.8822 17.4828L75.8819 17.483C75.5892 17.6738 75.338 17.8376 74.8682 17.9688ZM75.3399 18.8125L75.3709 18.7816C75.5475 18.6055 75.7134 18.44 76.0002 18.3438C76.2821 18.44 76.4453 18.6055 76.6188 18.7816L76.6493 18.8125C76.2722 19.1499 76.1211 19.3531 76.0002 19.75C75.8773 19.3531 75.7235 19.1499 75.3399 18.8125Z" fill="#1AD1B1"/>
<path d="M79.1089 2.5C84.0072 3.8125 83.7351 10.4688 76.8411 11.6875C80.2881 8.875 80.7416 4.9375 79.1089 2.5Z" fill="#1AD1B1"/>
<path d="M80.8993 14.4874C82.6754 15.3758 87.069 14.5809 85.7603 9.25C85.3863 9.43705 85.2757 9.68941 85.1059 9.90467C82.208 14.3003 79.4584 11.3506 77.4405 13.8526C75.4227 16.3546 79.1232 17.9478 79.4036 15.6096C77.5527 15.7186 77.534 14.3938 78.0949 13.9746C78.6558 13.5554 79.7775 13.9262 80.8993 14.4874Z" fill="#1AD1B1"/>
<path fill-rule="evenodd" clip-rule="evenodd" d="M100.407 8.09524C103.185 5.04762 106.611 5.14286 108.463 7.04762C104.481 8 107.551 12.3565 110.685 11.0476C114.033 9.64989 113.816 4.32746 107.465 2.06342C107.823 2.02153 108.187 2 108.556 2C113.763 2 117.987 6.29285 118 11.5936C117.344 9.70785 116.432 8.33938 115.222 7.33333C116.189 11.3727 114.944 14.0952 111.982 14.6667C113.463 10.8571 107.64 11.0476 107.508 14.9627C107.387 18.5194 111.882 20.4397 116.742 16.4576C115.235 19.7321 111.97 22 108.185 22C106.372 22 104.678 21.4794 103.239 20.5769C105.227 20.9627 107.091 20.9497 108.463 20.2857C104.481 19.5238 102.907 16.381 103.556 13.9048C106.333 17.0476 108.926 12.0952 105.778 9.90476C102.777 8.12796 98.5274 10.8471 99.6018 17.1708C98.5903 15.6389 98 13.7944 98 11.8095C98 8.34408 99.7993 5.30665 102.498 3.61347C101.302 5.08027 100.611 6.57774 100.407 8.09524Z" fill="#985AEA"/>
<path d="M140.029 1.5C137.823 4.23998 137.44 5.70783 140.029 7.17568C142.619 5.70783 142.235 4.23998 140.029 1.5Z" fill="#2CC76E"/>
<path d="M128.559 13.2297C129.932 14.3882 130.667 14.5897 131.403 13.2297C130.667 11.8697 129.932 12.0712 128.559 13.2297Z" fill="#2CC76E"/>
<path d="M129.255 5.61884C129.998 8.105 130.731 8.95309 132.711 7.99894C132.903 5.81369 131.848 5.4307 129.255 5.61884Z" fill="#2CC76E"/>
<path fill-rule="evenodd" clip-rule="evenodd" d="M129.255 5.61886C129.998 8.10502 130.731 8.95311 132.711 7.99896C132.903 5.81371 131.848 5.43071 129.255 5.61886ZM128.559 13.2297C129.932 14.3882 130.667 14.5897 131.403 13.2297C130.667 11.8697 129.932 12.0712 128.559 13.2297ZM150.803 5.61886C150.06 8.10502 149.327 8.95311 147.348 7.99896C147.156 5.81371 148.21 5.43071 150.803 5.61886ZM151.5 13.2297C150.127 14.3882 149.392 14.5897 148.656 13.2297C149.392 11.8697 150.127 12.0712 151.5 13.2297Z" fill="#2CC76E"/>
<path fill-rule="evenodd" clip-rule="evenodd" d="M139.839 7.93595C140.029 8.15346 139.238 9.07082 139.078 8.88167C136.131 5.38252 130.996 9.35453 132.897 13.5157C133.968 15.8575 135.911 16.6717 137.508 17.3406C138.749 17.8602 139.78 18.2922 140.029 19.2846C140.279 18.2922 141.31 17.8602 142.55 17.3406C144.147 16.6717 146.091 15.8575 147.161 13.5157C149.063 9.35453 143.928 5.38252 140.98 8.88167C140.821 9.07082 140.029 8.15346 140.219 7.93595C144.023 3.58566 150.394 8.31424 148.778 13.6103C147.947 16.3317 146.036 17.3551 144.182 18.3485C142.427 19.2883 140.723 20.2013 140.029 22.5C139.336 20.2013 137.631 19.2883 135.877 18.3485C134.022 17.3551 132.112 16.3317 131.281 13.6103C129.664 8.31424 136.035 3.58566 139.839 7.93595Z" fill="#2CC76E"/>
<path d="M134.91 13.1351C131.877 10.0135 136.901 7.17567 138.418 10.0135C137.185 9.72973 135.953 10.7703 136.237 12.1892C136.522 13.6081 138.418 14.3649 138.702 15.8784C136.806 14.4595 135.669 13.7973 133.678 13.9865C133.81 13.4984 134.38 13.2181 134.91 13.1351Z" fill="#2CC76E"/>
<path d="M145.148 13.1349C148.182 10.0129 143.158 7.17476 141.641 10.0129C142.873 9.72909 144.106 10.7697 143.821 12.1888C143.537 13.6079 141.641 14.3647 141.356 15.8784C143.252 14.4593 144.39 13.7971 146.381 13.9863C146.249 13.4982 145.678 13.2178 145.148 13.1349Z" fill="#2CC76E"/>
<path fill-rule="evenodd" clip-rule="evenodd" d="M171.976 1L171.943 1.06472C170.892 3.15211 170.229 4.47054 168.932 6.38397C169.379 6.38397 169.648 6.38397 170.096 6.19831C171.144 8.05337 171.485 9.05278 171.976 11.0253C172.466 9.05278 172.807 8.05337 173.855 6.19831C174.303 6.38397 174.572 6.38397 175.019 6.38397C173.722 4.47054 173.059 3.15211 172.008 1.06472L171.976 1ZM171.976 4.52744L171.145 5.64136C171.586 6.56363 171.741 7.21187 171.976 8.42617C172.21 7.21187 172.365 6.56363 172.806 5.64136L171.976 4.52744ZM181.478 6.53052L181.406 6.53448C179.085 6.66238 177.618 6.74316 175.324 6.56961C175.547 6.95974 175.682 7.19382 176.065 7.49113C174.993 9.33276 174.304 10.129 172.852 11.5432C174.794 10.9848 175.825 10.7816 177.945 10.7682C178.009 11.2512 178.143 11.4853 178.367 11.8754C179.365 9.78842 180.168 8.55077 181.439 6.59127L181.478 6.53052ZM178.443 8.29424L177.069 8.12769C176.496 8.97322 176.016 9.43203 175.088 10.2436C176.25 9.84089 176.885 9.65147 177.899 9.57472L178.443 8.29424ZM162.561 6.59129L162.522 6.53053L162.594 6.5345C164.915 6.6624 166.382 6.74318 168.676 6.56963C168.453 6.95976 168.318 7.19384 167.935 7.49114C169.007 9.33278 169.696 10.129 171.148 11.5432C169.206 10.9848 168.175 10.7817 166.055 10.7682C165.991 11.2512 165.857 11.4853 165.633 11.8754C164.635 9.78843 163.832 8.55078 162.561 6.59129ZM166.101 9.57471L165.557 8.29423L166.931 8.12768C167.504 8.9732 167.984 9.43201 168.912 10.2436C167.75 9.84088 167.115 9.65145 166.101 9.57471ZM170.338 9.14612L170.115 10.2409L171.84 11.9213L169.531 11.2574L168.701 12L169.531 12.7426L171.84 12.0787L170.114 13.759L170.338 14.8539L171.392 14.5016L171.976 12.1575L172.559 14.5016L173.613 14.8539L173.837 13.759L172.111 12.0787L174.42 12.7426L175.25 12L174.42 11.2574L172.111 11.9212L173.837 10.2409L173.613 9.14612L172.559 9.49833L171.976 11.8424L171.392 9.49832L170.338 9.14612ZM181.439 17.4234L181.478 17.4841L181.406 17.4801H181.406C179.085 17.3522 177.618 17.2715 175.324 17.445C175.547 17.0549 175.682 16.8208 176.065 16.5235C174.993 14.6819 174.304 13.8856 172.852 12.4714C174.795 13.0298 175.825 13.233 177.945 13.2464C178.009 12.7634 178.143 12.5294 178.367 12.1392C179.365 14.2262 180.168 15.4638 181.439 17.4232L181.439 17.4233L181.439 17.4233L181.439 17.4233L181.439 17.4234ZM177.899 14.4399L178.443 15.7204L177.069 15.887C176.496 15.0414 176.016 14.5826 175.088 13.771C176.25 14.1738 176.885 14.3632 177.899 14.4399ZM162.522 17.4841L162.594 17.4801H162.594H162.594H162.594H162.594C164.915 17.3522 166.382 17.2715 168.676 17.445C168.453 17.0549 168.318 16.8208 167.935 16.5235C169.007 14.6819 169.696 13.8856 171.148 12.4714C169.206 13.0298 168.175 13.233 166.055 13.2464C165.991 12.7634 165.857 12.5294 165.633 12.1392C164.635 14.2262 163.832 15.4639 162.561 17.4233L162.561 17.4234L162.522 17.4841ZM165.557 15.7204L166.931 15.8869C167.504 15.0414 167.984 14.5826 168.912 13.771C167.75 14.1737 167.115 14.3632 166.101 14.4399L165.557 15.7204ZM172.076 22.9606L172.044 23.0253L172.011 22.9606C170.96 20.8732 170.297 19.5548 169 17.6413C169.448 17.6413 169.716 17.6413 170.164 17.827C171.212 15.9719 171.553 14.9725 172.044 13C172.535 14.9725 172.875 15.9719 173.924 17.827C174.371 17.6413 174.64 17.6413 175.087 17.6413C173.791 19.5548 173.127 20.8732 172.076 22.9606ZM172.806 18.3586L171.976 19.4726L171.145 18.3586C171.586 17.4364 171.741 16.7881 171.976 15.5738C172.21 16.7881 172.365 17.4364 172.806 18.3586Z" fill="#5BD6DF"/>
<path d="M213 12C212.858 12.3902 211.615 14.0917 210.894 14.4541C208.875 9.56968 207.224 7.47028 204 4.07144C201.491 6.5816 200.362 8.13011 200.17 9.54592C201.604 8.25897 202.453 7.61586 204 6.52552C205.666 8.13576 206.492 9.1811 207.83 11.2449C207.094 12.2354 205.372 13.464 204.383 14.0765C204.079 13.8383 203.911 13.625 203.617 13.1327C204.493 12.401 204.954 11.9535 205.723 11.0561C205.374 10.0776 204.973 9.59105 204 8.79082C202.173 9.65207 201.06 10.7465 199.404 12.3776C198.397 10.8336 198.052 9.9673 197.872 8.41327C199.978 5.9345 201.357 4.73143 204 2.75001C206.722 4.73092 211.415 8.88679 213 12Z" fill="#E3C348"/>
<path d="M195 12C195.142 11.6098 196.385 9.90828 197.106 9.54591C199.125 14.4303 200.776 16.5297 204 19.9286C206.509 17.4184 207.638 15.8699 207.83 14.4541C206.396 15.741 205.547 16.3841 204 17.4745C202.334 15.8642 201.508 14.8189 200.17 12.7551C200.906 11.7647 202.628 10.536 203.617 9.92347C203.921 10.1617 204.089 10.375 204.383 10.8673C203.507 11.599 203.046 12.0465 202.277 12.9439C202.626 13.9224 203.027 14.409 204 15.2092C205.827 14.3479 206.94 13.2535 208.596 11.6224C209.603 13.1664 209.948 14.0327 210.128 15.5867C208.022 18.0655 206.643 19.2686 204 21.25C201.278 19.2691 196.585 15.1132 195 12Z" fill="#E3C348"/>
</svg>
